<svg width="28" height="28" viewBox="0 0 28 28" fill="none" xmlns="http://www.w3.org/2000/svg">
<rect width="28" height="28" fill="#232351"/>
<path fill-rule="evenodd" clip-rule="evenodd" d="M21.2909 15.5672L21.4132 15.4948V15.3506C21.4242 14.1152 21.3682 12.8666 21.3611 11.6279C20.4129 12.19 19.6005 12.681 18.8853 13.1042C17.1434 14.1317 15.9769 14.7438 14.8201 14.938C15.1722 14.7762 15.4702 14.5127 15.6774 14.1798C15.8847 13.8469 15.992 13.4592 15.9863 13.0647C15.9805 12.6701 15.8619 12.2859 15.6451 11.9595C15.4282 11.633 15.1227 11.3787 14.7661 11.2278C17.0925 10.1773 23.6759 6.12681 23.8517 6.06099C23.9783 6.00931 24.1153 5.99004 24.2508 6.00484C24.3864 6.01964 24.5163 6.06807 24.6294 6.14592C24.7425 6.22377 24.8352 6.32868 24.8996 6.45153C24.964 6.57438 24.998 6.71144 24.9988 6.85082V6.86661C25.0046 7.45503 24.9879 8.04674 24.9756 8.63516C24.9589 9.46645 24.946 10.2964 24.946 11.1277C24.946 11.959 24.9589 12.7896 24.9756 13.6203C24.9879 14.2093 25.0046 14.8004 24.9988 15.3888C24.993 16.0338 24.9731 16.8368 24.6493 17.4088C24.3255 17.9808 23.6566 18.4 23.1133 18.7252C22.6177 19.0246 22.1085 19.3057 21.6038 19.5894C20.8918 19.9895 20.1818 20.393 19.4795 20.809C18.7772 21.225 18.0787 21.6508 17.3835 22.0819C16.9264 22.3649 16.47 22.6519 16.0059 22.9231C16.0046 16.8645 16.6715 18.3546 21.2909 15.5672Z" fill="#F3723F"/>
<path fill-rule="evenodd" clip-rule="evenodd" d="M6.70843 15.5669L6.58677 15.4945V15.3504C6.57518 14.115 6.63119 12.8664 6.63827 11.6277C7.58713 12.1898 8.39887 12.6808 9.1147 13.104C10.8528 14.1314 12.0224 14.7435 13.1799 14.9377C12.8278 14.7761 12.5297 14.5125 12.3224 14.1797C12.1151 13.8468 12.0077 13.4592 12.0134 13.0646C12.0191 12.6701 12.1376 12.2858 12.3544 11.9594C12.5712 11.6329 12.8767 11.3785 13.2333 11.2275C10.9075 10.177 4.32405 6.12656 4.14767 6.06074C4.02111 6.0092 3.88415 5.99003 3.7487 6.0049C3.61324 6.01976 3.48339 6.06822 3.37041 6.14605C3.25743 6.22388 3.16474 6.32874 3.1004 6.45152C3.03605 6.57429 3.00199 6.71127 3.00118 6.85056V6.86636C2.99539 7.45478 3.01213 8.04649 3.02371 8.6349C3.0411 9.46619 3.05397 10.2962 3.05397 11.1275C3.05397 11.9587 3.0411 12.7894 3.02371 13.62C3.01213 14.2091 2.99539 14.8001 3.00118 15.3886C3.00698 16.0336 3.02693 16.8366 3.35009 17.4085C3.67324 17.9805 4.34336 18.3998 4.88603 18.7249C5.38299 19.027 5.89089 19.3048 6.39558 19.5884C7.10819 19.9886 7.81823 20.3921 8.51989 20.8081C9.22156 21.224 9.9213 21.6499 10.6165 22.081C11.0729 22.364 11.53 22.651 11.9935 22.9222C11.9954 16.8642 11.3278 18.3543 6.70843 15.5669Z" fill="#F3723F"/>
</svg>
