<svg width="232" height="44" viewBox="0 0 232 44" fill="none" xmlns="http://www.w3.org/2000/svg">
<path d="M76.3998 7.61238H79.5362L85.4362 22.1507L91.6092 7.61238H94.7456L98.491 30.4827H94.0857L92.087 16.3886L86.11 30.4827H84.6416L78.9359 16.3886L76.6606 30.4827H72.2623L76.3998 7.61238Z" fill="#FF926A"/>
<path d="M112.915 15.6352H116.986V30.4829H112.915V28.5622C111.446 30.7203 109.51 30.9612 108.476 30.9612C104.037 30.9612 101.101 27.3968 101.101 23.0483C101.101 18.6601 104.004 15.1622 108.277 15.1622C109.377 15.1622 111.546 15.3691 112.915 17.5631V15.6352ZM105.306 23.0411C105.306 25.4078 106.974 27.2583 109.311 27.2583C111.647 27.2583 113.314 25.4078 113.314 23.0411C113.314 20.6744 111.646 18.858 109.311 18.858C106.976 18.858 105.298 20.6762 105.298 23.0411H105.306Z" fill="#FF926A"/>
<path d="M120.846 15.6353H124.917V17.556C125.684 16.4589 127.053 15.1551 129.389 15.1551C130.656 15.1551 132.525 15.5328 133.66 16.9733C134.661 18.2322 134.794 19.7159 134.794 21.1564V30.4829H130.723V22.3901C130.723 21.5664 130.69 20.2644 129.956 19.4749C129.323 18.7897 128.454 18.7213 128.054 18.7213C126.986 18.7213 126.151 19.099 125.551 20.0252C124.951 20.9837 124.917 22.0466 124.917 22.9026V30.4829H120.846V15.6353Z" fill="#FF926A"/>
<path d="M149.518 15.3622H153.589V30.2098H149.518V28.2891C148.049 30.4472 146.114 30.6882 145.079 30.6882C140.641 30.6882 137.704 27.1238 137.704 22.7752C137.704 18.3871 140.607 14.8892 144.88 14.8892C145.982 14.8892 148.151 15.096 149.519 17.2901L149.518 15.3622ZM141.917 22.768C141.917 25.1347 143.584 26.9853 145.919 26.9853C148.254 26.9853 149.924 25.1347 149.924 22.768C149.924 20.4013 148.256 18.5849 145.919 18.5849C143.583 18.5849 141.917 20.4031 141.917 22.768Z" fill="#FF926A"/>
<path d="M168.697 15.6351H172.772V29.7957C172.772 32.0599 172.57 34.4248 170.769 36.27C169.765 37.2987 168.029 38.3777 165.058 38.3777C162.258 38.3777 160.588 37.5199 159.654 36.6621C158.518 35.6675 157.652 33.9195 157.317 32.2398H161.723C161.878 32.9223 162.226 33.5424 162.724 34.022C163.524 34.7773 164.626 34.8115 165.193 34.8115C166.361 34.8115 167.118 34.3997 167.663 33.8853C168.596 32.9591 168.697 31.7938 168.697 30.5942V28.4865C167.297 30.6806 165.359 30.9539 164.259 30.9539C162.323 30.9539 160.655 30.3371 159.253 28.9325C158.185 27.8355 156.95 25.9148 156.95 23.0337C156.95 20.6958 157.785 18.5377 159.186 17.1368C160.528 15.8321 162.312 15.1182 164.159 15.1477C166.861 15.1477 168.128 16.6566 168.697 17.5486V15.6351ZM162.456 19.8865C161.789 20.5034 161.155 21.5051 161.155 23.0409C161.127 24.1187 161.51 25.1652 162.223 25.9561C162.597 26.3715 163.052 26.7019 163.558 26.9261C164.063 27.1503 164.609 27.2634 165.16 27.2582C166.156 27.2664 167.12 26.9005 167.871 26.2295C168.288 25.817 168.618 25.3214 168.841 24.7731C169.065 24.2248 169.177 23.6354 169.171 23.0409C169.179 21.9279 168.76 20.8564 168.004 20.0592C167.204 19.2013 166.27 18.8578 165.169 18.8578C164.17 18.8327 163.199 19.2007 162.456 19.8865Z" fill="#FF926A"/>
<path d="M189.873 26.4036C189.439 27.5006 187.804 31.0309 182.766 31.0309C180.429 31.0309 178.661 30.3457 177.226 28.9394C175.625 27.3963 174.951 25.4774 174.951 23.1449C174.951 20.1973 176.12 18.3791 177.154 17.3163C178.856 15.6024 180.858 15.2247 182.592 15.2247C185.529 15.2247 187.232 16.4243 188.233 17.6598C189.768 19.5445 189.968 21.877 189.968 23.4884V23.8319H179.157C179.157 24.7221 179.389 25.6825 179.857 26.3335C180.291 26.9521 181.192 27.7398 182.76 27.7398C184.295 27.7398 185.463 26.9863 186.129 25.785L189.873 26.4036ZM186.135 21.1577C185.802 19.1345 184.209 18.1741 182.699 18.1741C181.876 18.1646 181.078 18.4615 180.452 19.0101C179.827 19.5586 179.415 20.3215 179.295 21.1577H186.135Z" fill="#FF926A"/>
<path d="M200.032 18.4154L193.392 7.61593H198.597L202.502 14.7124L206.606 7.61593H211.811L204.971 18.4154L212.58 30.4862H207.371L202.5 22.1201L197.361 30.4862H192.155L200.032 18.4154Z" fill="white"/>
<path d="M222.222 7.61256C225.293 7.61256 226.861 8.43443 227.896 9.32644C229.597 10.8011 230.098 12.756 230.098 14.4699C230.098 16.6981 229.222 18.653 227.495 19.8525C226.762 20.3599 225.931 20.6991 225.059 20.847L232 30.4829H226.594L220.653 21.293H220.12V30.4829H215.783V7.61256H222.222ZM220.121 18.1386H221.357C222.19 18.1386 225.627 18.0361 225.627 14.6749C225.627 11.2813 222.223 11.2471 221.427 11.2471H220.125L220.121 18.1386Z" fill="white"/>
<path fill-rule="evenodd" clip-rule="evenodd" d="M45.8501 24.8747L46.1567 24.6864V24.3117C46.1842 21.0996 46.0438 17.8533 46.026 14.6326C43.6491 16.0941 41.6127 17.3707 39.8199 18.471C35.4534 21.1424 32.5294 22.7339 29.6297 23.2387C30.5122 22.8182 31.2593 22.133 31.7787 21.2674C32.2982 20.4019 32.5674 19.394 32.5529 18.3682C32.5385 17.3423 32.2412 16.3434 31.6976 15.4946C31.1541 14.6459 30.3881 13.9845 29.4942 13.5922C35.3259 10.861 51.8287 0.329708 52.2692 0.158579C52.5866 0.0242174 52.9301 -0.025902 53.2698 0.0125807C53.6096 0.0510635 53.9353 0.176982 54.2188 0.379388C54.5022 0.581795 54.7347 0.854563 54.8961 1.17397C55.0575 1.49338 55.1428 1.84976 55.1448 2.21212V2.25319C55.1593 3.78308 55.1173 5.32152 55.0867 6.85141C55.0447 9.01277 55.0124 11.1707 55.0124 13.3321C55.0124 15.4934 55.0447 17.6531 55.0867 19.8127C55.1173 21.3443 55.1593 22.881 55.1448 24.4109C55.1302 26.088 55.0802 28.1757 54.2686 29.6628C53.4569 31.15 51.7803 32.24 50.4184 33.0854C49.1759 33.8641 47.8995 34.5948 46.6344 35.3323C44.8497 36.3728 43.0698 37.4218 41.3093 38.5033C39.5488 39.5849 37.798 40.6921 36.0553 41.813C34.9096 42.5488 33.7655 43.295 32.602 44C32.5988 28.2476 34.2706 32.122 45.8501 24.8747Z" fill="#FF926A"/>
<path fill-rule="evenodd" clip-rule="evenodd" d="M9.29599 24.874L8.991 24.6858V24.311C8.96196 21.0989 9.10235 17.8526 9.1201 14.632C11.4986 16.0934 13.5334 17.37 15.3278 18.4704C19.6847 21.1417 22.6167 22.7332 25.518 23.238C24.6355 22.8177 23.8883 22.1326 23.3687 21.2672C22.849 20.4018 22.5797 19.3939 22.594 18.3681C22.6082 17.3422 22.9054 16.3432 23.4488 15.4944C23.9922 14.6456 24.7581 13.984 25.6519 13.5915C19.8218 10.8603 3.31902 0.329047 2.87688 0.157918C2.55962 0.0239137 2.21631 -0.0259261 1.87677 0.0127297C1.53723 0.0513854 1.21171 0.177365 0.928506 0.379731C0.645298 0.582096 0.412957 0.854725 0.251664 1.17394C0.0903699 1.49316 0.00500033 1.84931 0.00296919 2.21146V2.25253C-0.0115537 3.78242 0.030401 5.32086 0.0594467 6.85075C0.103015 9.0121 0.135289 11.17 0.135289 13.3314C0.135289 15.4927 0.103015 17.6524 0.0594467 19.812C0.030401 21.3436 -0.0115537 22.8804 0.00296919 24.4102C0.0174921 26.0873 0.067515 28.1751 0.877568 29.6622C1.68762 31.1493 3.36743 32.2394 4.72774 33.0847C5.97348 33.8702 7.24665 34.5924 8.51175 35.33C10.2981 36.3704 12.0779 37.4194 13.8368 38.501C15.5957 39.5825 17.3497 40.6897 19.0925 41.8106C20.2365 42.5464 21.3822 43.2926 22.5441 43.9976C22.5489 28.247 20.8755 32.1213 9.29599 24.874Z" fill="#FF926A"/>
</svg>
