<svg width="232" height="44" viewBox="0 0 232 44" fill="none" xmlns="http://www.w3.org/2000/svg">
<path d="M76.3997 7.60657H79.5361L85.4361 22.1338L91.6091 7.60657H94.7455L98.491 30.4594H94.0856L92.0869 16.3761L86.1099 30.4594H84.6415L78.9358 16.3761L76.6605 30.4594H72.2622L76.3997 7.60657Z" fill="#FF926A"/>
<path d="M112.915 15.6233H116.986V30.4596H112.915V28.5403C111.446 30.6968 109.51 30.9376 108.476 30.9376C104.037 30.9376 101.101 27.3759 101.101 23.0306C101.101 18.6459 104.004 15.1506 108.276 15.1506C109.377 15.1506 111.546 15.3573 112.915 17.5497V15.6233ZM105.306 23.0234C105.306 25.3883 106.974 27.2375 109.311 27.2375C111.647 27.2375 113.314 25.3883 113.314 23.0234C113.314 20.6585 111.646 18.8435 109.311 18.8435C106.976 18.8435 105.298 20.6603 105.298 23.0234H105.306Z" fill="#FF926A"/>
<path d="M120.846 15.6232H124.917V17.5425C125.684 16.4463 127.052 15.1434 129.389 15.1434C130.656 15.1434 132.525 15.5208 133.66 16.9602C134.661 18.2182 134.794 19.7007 134.794 21.1401V30.4595H130.723V22.3729C130.723 21.5499 130.689 20.2488 129.956 19.4599C129.322 18.7752 128.454 18.707 128.054 18.707C126.986 18.707 126.151 19.0843 125.551 20.0098C124.95 20.9676 124.917 22.0297 124.917 22.885V30.4595H120.846V15.6232Z" fill="#FF926A"/>
<path d="M149.518 15.3504H153.589V30.1867H149.518V28.2675C148.049 30.4239 146.113 30.6648 145.079 30.6648C140.64 30.6648 137.704 27.103 137.704 22.7578C137.704 18.373 140.607 14.8778 144.88 14.8778C145.982 14.8778 148.151 15.0845 149.519 17.2768L149.518 15.3504ZM141.916 22.7506C141.916 25.1155 143.584 26.9647 145.919 26.9647C148.254 26.9647 149.924 25.1155 149.924 22.7506C149.924 20.3857 148.256 18.5707 145.919 18.5707C143.583 18.5707 141.916 20.3875 141.916 22.7506Z" fill="#FF926A"/>
<path d="M168.697 15.6231H172.772V29.773C172.772 32.0354 172.57 34.3986 170.769 36.2423C169.765 37.2702 168.029 38.3484 165.058 38.3484C162.258 38.3484 160.588 37.4912 159.654 36.6341C158.518 35.6403 157.652 33.8936 157.317 32.2151H161.723C161.878 32.8972 162.226 33.5168 162.724 33.996C163.524 34.7508 164.626 34.7849 165.193 34.7849C166.361 34.7849 167.118 34.3734 167.663 33.8594C168.596 32.934 168.697 31.7695 168.697 30.5709V28.4647C167.297 30.6571 165.36 30.9303 164.259 30.9303C162.323 30.9303 160.655 30.3139 159.253 28.9104C158.185 27.8142 156.95 25.895 156.95 23.0161C156.95 20.68 157.785 18.5235 159.186 17.1237C160.528 15.82 162.312 15.1067 164.159 15.1361C166.861 15.1361 168.128 16.6438 168.697 17.5352V15.6231ZM162.456 19.8713C161.789 20.4877 161.155 21.4887 161.155 23.0233C161.127 24.1003 161.51 25.146 162.223 25.9363C162.597 26.3513 163.052 26.6815 163.558 26.9055C164.063 27.1296 164.609 27.2426 165.16 27.2374C166.156 27.2455 167.12 26.88 167.871 26.2095C168.288 25.7972 168.618 25.302 168.841 24.7542C169.065 24.2063 169.177 23.6173 169.171 23.0233C169.179 21.9111 168.76 20.8405 168.004 20.0438C167.204 19.1867 166.27 18.8434 165.169 18.8434C164.17 18.8182 163.199 19.186 162.456 19.8713Z" fill="#FF926A"/>
<path d="M189.873 26.3835C189.438 27.4797 187.804 31.0072 182.765 31.0072C180.428 31.0072 178.661 30.3226 177.225 28.9173C175.624 27.3754 174.95 25.458 174.95 23.1273C174.95 20.1819 176.119 18.3651 177.154 17.3031C178.855 15.5905 180.857 15.2131 182.592 15.2131C185.529 15.2131 187.231 16.4118 188.233 17.6463C189.768 19.5296 189.967 21.8604 189.967 23.4705V23.8137H179.156C179.156 24.7033 179.389 25.6629 179.856 26.3134C180.29 26.9316 181.191 27.7187 182.76 27.7187C184.295 27.7187 185.462 26.9657 186.129 25.7653L189.873 26.3835ZM186.134 21.1415C185.802 19.1199 184.209 18.1603 182.698 18.1603C181.876 18.1507 181.078 18.4475 180.452 18.9956C179.826 19.5437 179.415 20.306 179.294 21.1415H186.134Z" fill="#FF926A"/>
<path d="M200.032 18.4013L193.392 7.61011H198.597L202.502 14.7012L206.606 7.61011H211.811L204.971 18.4013L212.579 30.463H207.371L202.5 22.1032L197.361 30.463H192.154L200.032 18.4013Z" fill="#212756"/>
<path d="M222.221 7.60681C225.293 7.60681 226.861 8.42806 227.895 9.31938C229.597 10.793 230.097 12.7463 230.097 14.4589C230.097 16.6854 229.222 18.6388 227.495 19.8374C226.761 20.3444 225.931 20.6834 225.058 20.8312L232 30.4597H226.593L220.653 21.2768H220.119V30.4597H215.782V7.60681H222.221ZM220.121 18.1248H221.357C222.19 18.1248 225.627 18.0224 225.627 14.6638C225.627 11.2728 222.223 11.2386 221.427 11.2386H220.125L220.121 18.1248Z" fill="#212756"/>
<path fill-rule="evenodd" clip-rule="evenodd" d="M45.8501 24.8557L46.1567 24.6676V24.2931C46.1841 21.0835 46.0437 17.8396 46.026 14.6215C43.6491 16.0818 41.6127 17.3574 39.8199 18.457C35.4534 21.1262 32.5294 22.7165 29.6297 23.221C30.5122 22.8008 31.2592 22.1161 31.7787 21.2512C32.2982 20.3864 32.5673 19.3792 32.5529 18.3541C32.5385 17.3291 32.2412 16.3309 31.6976 15.4828C31.154 14.6347 30.388 13.9739 29.4941 13.5818C35.3259 10.8527 51.8287 0.329456 52.2692 0.158458C52.5866 0.0241989 52.93 -0.0258823 53.2698 0.0125711C53.6096 0.0510245 53.9353 0.176847 54.2187 0.379099C54.5022 0.581351 54.7347 0.853911 54.8961 1.17307C55.0574 1.49224 55.1428 1.84835 55.1447 2.21043V2.25147C55.1593 3.78019 55.1173 5.31746 55.0866 6.84619C55.0447 9.00589 55.0124 11.1622 55.0124 13.3219C55.0124 15.4816 55.0447 17.6396 55.0866 19.7976C55.1173 21.328 55.1593 22.8636 55.1447 24.3923C55.1302 26.0681 55.0802 28.1542 54.2685 29.6402C53.4569 31.1262 51.7803 32.2154 50.4184 33.0602C49.1758 33.8382 47.8994 34.5684 46.6343 35.3054C44.8496 36.345 43.0698 37.3933 41.3093 38.474C39.5488 39.5547 37.798 40.661 36.0552 41.7811C34.9096 42.5164 33.7655 43.2619 32.602 43.9664C32.5988 28.2261 34.2705 32.0975 45.8501 24.8557Z" fill="#FF926A"/>
<path fill-rule="evenodd" clip-rule="evenodd" d="M9.29598 24.855L8.991 24.6669V24.2924C8.96196 21.0828 9.10234 17.839 9.12009 14.6208C11.4986 16.0811 13.5334 17.3568 15.3278 18.4563C19.6847 21.1255 22.6167 22.7158 25.518 23.2203C24.6355 22.8003 23.8883 22.1157 23.3687 21.2509C22.849 20.3862 22.5797 19.3791 22.594 18.354C22.6082 17.3289 22.9054 16.3307 23.4488 15.4825C23.9922 14.6344 24.7581 13.9734 25.6519 13.5811C19.8218 10.852 3.31902 0.328776 2.87688 0.157778C2.55962 0.0238752 2.21631 -0.0259265 1.87677 0.0126997C1.53722 0.0513259 1.21171 0.17721 0.928506 0.379421C0.645298 0.581631 0.412957 0.854053 0.251664 1.17303C0.0903698 1.492 0.00500033 1.84788 0.00296919 2.20975V2.25079C-0.0115537 3.77951 0.030401 5.31678 0.0594467 6.8455C0.103015 9.00521 0.135288 11.1615 0.135288 13.3212C0.135288 15.4809 0.103015 17.6389 0.0594467 19.7969C0.030401 21.3273 -0.0115537 22.8629 0.00296919 24.3916C0.017492 26.0674 0.0675149 28.1536 0.877567 29.6395C1.68762 31.1255 3.36743 32.2148 4.72774 33.0595C5.97347 33.8444 7.24665 34.566 8.51175 35.303C10.2981 36.3427 12.0779 37.3909 13.8368 38.4716C15.5957 39.5523 17.3497 40.6586 19.0924 41.7787C20.2365 42.514 21.3822 43.2595 22.544 43.964C22.5489 28.2254 20.8755 32.0968 9.29598 24.855Z" fill="#FF926A"/>
</svg>
